<svg width="312" height="80" viewBox="0 0 312 80" fill="none" xmlns="http://www.w3.org/2000/svg">
<circle cx="40" cy="40" r="40" fill="#0F0C0C"/>
<path d="M105.44 48.14H94.94L92.87 53H88.85L98.3 32H102.14L111.62 53H107.54L105.44 48.14ZM104.15 45.08L100.19 35.9L96.26 45.08H104.15ZM137.901 32V53H134.691L123.111 38.78V53H119.241V32H122.451L134.031 46.22V32H137.901ZM148.478 32H157.658C159.898 32 161.888 32.44 163.628 33.32C165.368 34.18 166.718 35.41 167.678 37.01C168.638 38.59 169.118 40.42 169.118 42.5C169.118 44.58 168.638 46.42 167.678 48.02C166.718 49.6 165.368 50.83 163.628 51.71C161.888 52.57 159.898 53 157.658 53H148.478V32ZM157.478 49.7C159.018 49.7 160.368 49.41 161.528 48.83C162.708 48.23 163.608 47.39 164.228 46.31C164.868 45.21 165.188 43.94 165.188 42.5C165.188 41.06 164.868 39.8 164.228 38.72C163.608 37.62 162.708 36.78 161.528 36.2C160.368 35.6 159.018 35.3 157.478 35.3H152.378V49.7H157.478ZM186.365 45.59V53H182.465V45.65L174.215 32H178.385L184.535 42.23L190.745 32H194.585L186.365 45.59ZM233.99 32V53H230.09V44H219.23V53H215.33V32H219.23V40.67H230.09V32H233.99ZM260.317 49.73V53H244.567V32H259.897V35.27H248.467V40.73H258.607V43.94H248.467V49.73H260.317ZM269.615 32H273.515V49.7H284.495V53H269.615V32ZM301.164 32C302.984 32 304.564 32.3 305.904 32.9C307.264 33.5 308.304 34.36 309.024 35.48C309.744 36.6 310.104 37.93 310.104 39.47C310.104 40.99 309.744 42.32 309.024 43.46C308.304 44.58 307.264 45.44 305.904 46.04C304.564 46.64 302.984 46.94 301.164 46.94H296.424V53H292.524V32H301.164ZM300.984 43.64C302.684 43.64 303.974 43.28 304.854 42.56C305.734 41.84 306.174 40.81 306.174 39.47C306.174 38.13 305.734 37.1 304.854 36.38C303.974 35.66 302.684 35.3 300.984 35.3H296.424V43.64H300.984Z" fill="black"/>
<path d="M51.1 27.8V53H45.268V42.668H33.82V53H27.988V27.8H33.82V37.736H45.268V27.8H51.1Z" fill="white"/>
</svg>
