<svg width="270" height="124" viewBox="0 0 270 124" fill="none" xmlns="http://www.w3.org/2000/svg">
<path opacity="0.28" d="M266.162 123.34H3.49906C1.55514 123.34 0 121.785 0 119.841C0 117.897 1.55514 116.342 3.49906 116.342H266.201C268.145 116.342 269.7 117.897 269.7 119.841C269.661 121.785 268.106 123.34 266.162 123.34Z" fill="#848484"/>
<path d="M254.771 87.416C254.771 72.9532 243.807 61.0563 229.616 59.6956V56.4298H221.102V118.908H229.616V115.136C243.768 113.776 254.771 101.879 254.771 87.416ZM229.577 106.155V68.7154C238.675 70.0373 245.829 77.9296 245.829 87.4548C245.829 96.9412 238.675 104.833 229.577 106.155Z" fill="#F09F54"/>
<path opacity="0.29" d="M229.577 59.6957V56.4299H221.063V118.908H229.577V115.136C243.768 113.776 254.732 101.918 254.732 87.4161C254.771 72.9533 243.768 61.0565 229.577 59.6957ZM229.577 112.259V115.486H221.607V59.2681H229.577V62.5727C242.057 63.778 252.127 74.4307 252.127 87.4161C252.166 100.401 242.096 111.054 229.577 112.259Z" fill="#F09F54"/>
<path d="M254.771 87.416C254.771 72.9532 243.807 61.0563 229.616 59.6956V56.4298H221.102V118.908H229.616V115.136C243.768 113.776 254.771 101.879 254.771 87.416ZM229.577 106.155V68.7154C238.675 70.0373 245.829 77.9296 245.829 87.4548C245.829 96.9412 238.675 104.833 229.577 106.155Z" stroke="#444E59" stroke-width="4" stroke-miterlimit="10" stroke-linecap="round" stroke-linejoin="round"/>
<path d="M224.484 112.648H221.063" stroke="#444E59" stroke-width="3" stroke-miterlimit="10" stroke-linecap="round" stroke-linejoin="round"/>
<path d="M224.484 106.428H221.063" stroke="#444E59" stroke-width="3" stroke-miterlimit="10" stroke-linecap="round" stroke-linejoin="round"/>
<path d="M224.484 100.168H221.063" stroke="#444E59" stroke-width="3" stroke-miterlimit="10" stroke-linecap="round" stroke-linejoin="round"/>
<path d="M224.484 93.9087H221.063" stroke="#444E59" stroke-width="3" stroke-miterlimit="10" stroke-linecap="round" stroke-linejoin="round"/>
<path d="M224.484 87.6881H221.063" stroke="#444E59" stroke-width="3" stroke-miterlimit="10" stroke-linecap="round" stroke-linejoin="round"/>
<path d="M224.484 81.4287H221.063" stroke="#444E59" stroke-width="3" stroke-miterlimit="10" stroke-linecap="round" stroke-linejoin="round"/>
<path d="M224.484 75.1693H221.063" stroke="#444E59" stroke-width="3" stroke-miterlimit="10" stroke-linecap="round" stroke-linejoin="round"/>
<path d="M224.484 68.9099H221.063" stroke="#444E59" stroke-width="3" stroke-miterlimit="10" stroke-linecap="round" stroke-linejoin="round"/>
<path d="M224.484 62.6893H221.063" stroke="#444E59" stroke-width="3" stroke-miterlimit="10" stroke-linecap="round" stroke-linejoin="round"/>
<path d="M215.076 24.8217H202.207V118.752H215.076V24.8217Z" fill="#F09F54"/>
<path d="M215.076 24.8217H202.207V118.752H215.076V24.8217Z" fill="#F09F54"/>
<path opacity="0.29" d="M215.076 24.8217H209.477V118.752H215.076V24.8217Z" fill="#F09F54"/>
<path d="M215.076 24.8217H202.207V118.752H215.076V24.8217Z" stroke="#444E59" stroke-width="4" stroke-miterlimit="10" stroke-linecap="round" stroke-linejoin="round"/>
<path d="M206.678 109.266H202.207" stroke="#444E59" stroke-width="3" stroke-miterlimit="10" stroke-linecap="round" stroke-linejoin="round"/>
<path d="M204.967 113.737H202.207" stroke="#444E59" stroke-width="3" stroke-miterlimit="10" stroke-linecap="round" stroke-linejoin="round"/>
<path d="M206.678 100.324H202.207" stroke="#444E59" stroke-width="3" stroke-miterlimit="10" stroke-linecap="round" stroke-linejoin="round"/>
<path d="M204.967 104.795H202.207" stroke="#444E59" stroke-width="3" stroke-miterlimit="10" stroke-linecap="round" stroke-linejoin="round"/>
<path d="M206.678 91.3816H202.207" stroke="#444E59" stroke-width="3" stroke-miterlimit="10" stroke-linecap="round" stroke-linejoin="round"/>
<path d="M204.967 95.8527H202.207" stroke="#444E59" stroke-width="3" stroke-miterlimit="10" stroke-linecap="round" stroke-linejoin="round"/>
<path d="M206.678 82.4006H202.207" stroke="#444E59" stroke-width="3" stroke-miterlimit="10" stroke-linecap="round" stroke-linejoin="round"/>
<path d="M204.967 86.8717H202.207" stroke="#444E59" stroke-width="3" stroke-miterlimit="10" stroke-linecap="round" stroke-linejoin="round"/>
<path d="M206.678 73.4586H202.207" stroke="#444E59" stroke-width="3" stroke-miterlimit="10" stroke-linecap="round" stroke-linejoin="round"/>
<path d="M204.967 77.9297H202.207" stroke="#444E59" stroke-width="3" stroke-miterlimit="10" stroke-linecap="round" stroke-linejoin="round"/>
<path d="M206.678 64.5166H202.207" stroke="#444E59" stroke-width="3" stroke-miterlimit="10" stroke-linecap="round" stroke-linejoin="round"/>
<path d="M204.967 68.9875H202.207" stroke="#444E59" stroke-width="3" stroke-miterlimit="10" stroke-linecap="round" stroke-linejoin="round"/>
<path d="M206.678 55.5745H202.207" stroke="#444E59" stroke-width="3" stroke-miterlimit="10" stroke-linecap="round" stroke-linejoin="round"/>
<path d="M204.967 60.0455H202.207" stroke="#444E59" stroke-width="3" stroke-miterlimit="10" stroke-linecap="round" stroke-linejoin="round"/>
<path d="M206.678 46.6324H202.207" stroke="#444E59" stroke-width="3" stroke-miterlimit="10" stroke-linecap="round" stroke-linejoin="round"/>
<path d="M204.967 51.1035H202.207" stroke="#444E59" stroke-width="3" stroke-miterlimit="10" stroke-linecap="round" stroke-linejoin="round"/>
<path d="M206.678 37.6904H202.207" stroke="#444E59" stroke-width="3" stroke-miterlimit="10" stroke-linecap="round" stroke-linejoin="round"/>
<path d="M204.967 42.1615H202.207" stroke="#444E59" stroke-width="3" stroke-miterlimit="10" stroke-linecap="round" stroke-linejoin="round"/>
<path d="M206.678 28.7484H202.207" stroke="#444E59" stroke-width="3" stroke-miterlimit="10" stroke-linecap="round" stroke-linejoin="round"/>
<path d="M204.967 33.2194H202.207" stroke="#444E59" stroke-width="3" stroke-miterlimit="10" stroke-linecap="round" stroke-linejoin="round"/>
<path d="M183.429 47.5267H178.413V60.7843H183.429V47.5267Z" fill="#848484"/>
<path opacity="0.25" d="M180.28 47.5267H178.413V60.7843H180.28V47.5267Z" fill="#848484"/>
<path d="M183.429 47.5267H178.413V60.7843H183.429V47.5267Z" stroke="#444E59" stroke-width="4" stroke-miterlimit="10" stroke-linecap="round" stroke-linejoin="round"/>
<path d="M182.068 60.8231H179.774V67.2381H182.068V60.8231Z" fill="white"/>
<path d="M182.068 60.8231H179.774V67.2381H182.068V60.8231Z" stroke="#444E59" stroke-width="4" stroke-miterlimit="10" stroke-linecap="round" stroke-linejoin="round"/>
<path d="M177.053 72.9532L165.389 118.713L183.118 73.5753L177.053 72.9532Z" fill="white"/>
<path d="M177.053 72.9532L165.389 118.713L183.118 73.5753L177.053 72.9532Z" stroke="#444E59" stroke-width="4" stroke-miterlimit="10" stroke-linecap="round" stroke-linejoin="round"/>
<path d="M184.828 72.9532L196.492 118.713L178.802 73.5753L184.828 72.9532Z" fill="white"/>
<path d="M184.828 72.9532L196.492 118.713L178.802 73.5753L184.828 72.9532Z" stroke="#444E59" stroke-width="4" stroke-miterlimit="10" stroke-linecap="round" stroke-linejoin="round"/>
<path d="M180.94 81.9342C185.235 81.9342 188.716 78.4529 188.716 74.1585C188.716 69.8641 185.235 66.3828 180.94 66.3828C176.646 66.3828 173.165 69.8641 173.165 74.1585C173.165 78.4529 176.646 81.9342 180.94 81.9342Z" fill="#71A850"/>
<path opacity="0.4" d="M175.342 74.1585C175.342 70.2318 178.258 67.0049 182.029 66.4606C181.679 66.4217 181.329 66.3828 180.94 66.3828C176.664 66.3828 173.165 69.8819 173.165 74.1585C173.165 78.4351 176.664 81.9342 180.94 81.9342C181.29 81.9342 181.679 81.8953 182.029 81.8564C178.258 81.3121 175.342 78.0852 175.342 74.1585Z" fill="#71A850"/>
<path d="M180.94 81.9342C185.235 81.9342 188.716 78.4529 188.716 74.1585C188.716 69.8641 185.235 66.3828 180.94 66.3828C176.646 66.3828 173.165 69.8641 173.165 74.1585C173.165 78.4529 176.646 81.9342 180.94 81.9342Z" stroke="#444E59" stroke-width="4" stroke-miterlimit="10" stroke-linecap="round" stroke-linejoin="round"/>
<path d="M180.94 76.8022C182.401 76.8022 183.584 75.6186 183.584 74.1585C183.584 72.6984 182.401 71.5148 180.94 71.5148C179.48 71.5148 178.297 72.6984 178.297 74.1585C178.297 75.6186 179.48 76.8022 180.94 76.8022Z" fill="#444E59"/>
<path d="M180.94 76.8022C182.401 76.8022 183.584 75.6186 183.584 74.1585C183.584 72.6984 182.401 71.5148 180.94 71.5148C179.48 71.5148 178.297 72.6984 178.297 74.1585C178.297 75.6186 179.48 76.8022 180.94 76.8022Z" stroke="#444E59" stroke-width="4" stroke-miterlimit="10" stroke-linecap="round" stroke-linejoin="round"/>
<path d="M152.87 118.635H101.551C98.5569 118.635 96.1076 116.186 96.1076 113.192V7.44299C96.1076 4.44934 98.5569 2 101.551 2H152.87C155.864 2 158.313 4.44934 158.313 7.44299V113.192C158.313 116.186 155.864 118.635 152.87 118.635Z" fill="#848484"/>
<path opacity="0.28" d="M152.87 2H149.604C152.598 2 155.047 4.44934 155.047 7.44299V113.192C155.047 116.186 152.598 118.635 149.604 118.635H152.909C155.903 118.635 158.352 116.186 158.352 113.192V7.44299C158.313 4.41047 155.864 2 152.87 2Z" fill="#848484"/>
<path opacity="0.48" d="M99.3345 113.192V7.44299C99.3345 4.44934 101.784 2 104.778 2H101.551C98.5569 2 96.1076 4.44934 96.1076 7.44299V113.192C96.1076 116.186 98.5569 118.635 101.551 118.635H104.778C101.784 118.635 99.3345 116.186 99.3345 113.192Z" fill="#848484"/>
<path d="M152.87 118.635H101.551C98.5569 118.635 96.1076 116.186 96.1076 113.192V7.44299C96.1076 4.44934 98.5569 2 101.551 2H152.87C155.864 2 158.313 4.44934 158.313 7.44299V113.192C158.313 116.186 155.864 118.635 152.87 118.635Z" stroke="#444E59" stroke-width="4" stroke-miterlimit="10" stroke-linecap="round" stroke-linejoin="round"/>
<path d="M158.321 103.663L158.321 16.5748L96.115 16.5748L96.115 103.663L158.321 103.663Z" fill="#E9FBFF"/>
<path d="M158.002 44.6497H153.142C150.499 44.6497 148.36 42.5114 148.36 39.8677V28.0097C148.36 25.366 150.499 23.2277 153.142 23.2277H158.002V44.6497Z" fill="#C9C9C9"/>
<path d="M99.6844 92.7035H96.1076V54.8748H99.6844C102.367 54.8748 104.544 57.052 104.544 59.7346V87.8437C104.505 90.5263 102.367 92.7035 99.6844 92.7035Z" fill="#C9C9C9"/>
<path d="M158.321 103.663L158.321 16.5748L96.115 16.5748L96.115 103.663L158.321 103.663Z" stroke="#444E59" stroke-width="4" stroke-miterlimit="10" stroke-linecap="round" stroke-linejoin="round"/>
<path d="M135.764 9.77563H138.485" stroke="#444E59" stroke-width="5" stroke-miterlimit="10" stroke-linecap="round" stroke-linejoin="round"/>
<path d="M115.936 9.77563H131.487" stroke="#444E59" stroke-width="5" stroke-miterlimit="10" stroke-linecap="round" stroke-linejoin="round"/>
<path opacity="0.29" d="M127.21 114.514C129.572 114.514 131.487 112.6 131.487 110.238C131.487 107.876 129.572 105.961 127.21 105.961C124.848 105.961 122.934 107.876 122.934 110.238C122.934 112.6 124.848 114.514 127.21 114.514Z" fill="#848484"/>
<path d="M127.21 113.504C129.014 113.504 130.476 112.041 130.476 110.238C130.476 108.434 129.014 106.972 127.21 106.972C125.407 106.972 123.945 108.434 123.945 110.238C123.945 112.041 125.407 113.504 127.21 113.504Z" fill="#444E59"/>
<g opacity="0.3">
<g opacity="0.3">
<g opacity="0.3">
<path opacity="0.3" d="M113.02 93.2478H106.799C105.089 93.2478 103.689 91.8481 103.689 90.1375V83.9169C103.689 82.2063 105.089 80.8066 106.799 80.8066H113.02C114.73 80.8066 116.13 82.2063 116.13 83.9169V90.1375C116.13 91.8481 114.73 93.2478 113.02 93.2478Z" stroke="#444E59" stroke-width="2" stroke-linecap="round" stroke-linejoin="round" stroke-dasharray="4.08 4.08"/>
</g>
<g opacity="0.3">
<path opacity="0.3" d="M147.427 93.2478H141.207C139.496 93.2478 138.096 91.8481 138.096 90.1375V83.9169C138.096 82.2063 139.496 80.8066 141.207 80.8066H147.427C149.138 80.8066 150.537 82.2063 150.537 83.9169V90.1375C150.537 91.8481 149.138 93.2478 147.427 93.2478Z" stroke="#444E59" stroke-width="2" stroke-linecap="round" stroke-linejoin="round" stroke-dasharray="4.08 4.08"/>
</g>
<g opacity="0.3">
<path opacity="0.3" d="M130.321 93.2478H124.1C122.389 93.2478 120.99 91.8481 120.99 90.1375V83.9169C120.99 82.2063 122.389 80.8066 124.1 80.8066H130.321C132.031 80.8066 133.431 82.2063 133.431 83.9169V90.1375C133.431 91.8481 132.031 93.2478 130.321 93.2478Z" stroke="#444E59" stroke-width="2" stroke-linecap="round" stroke-linejoin="round" stroke-dasharray="4.08 4.08"/>
</g>
</g>
<g opacity="0.3">
<g opacity="0.3">
<path opacity="0.3" d="M113.02 74.5861H106.799C105.089 74.5861 103.689 73.1865 103.689 71.4759V65.2553C103.689 63.5447 105.089 62.145 106.799 62.145H113.02C114.73 62.145 116.13 63.5447 116.13 65.2553V71.4759C116.13 73.1865 114.73 74.5861 113.02 74.5861Z" stroke="#444E59" stroke-width="2" stroke-linecap="round" stroke-linejoin="round" stroke-dasharray="4.08 4.08"/>
</g>
<g opacity="0.3">
<path opacity="0.3" d="M147.427 74.5861H141.207C139.496 74.5861 138.096 73.1865 138.096 71.4759V65.2553C138.096 63.5447 139.496 62.145 141.207 62.145H147.427C149.138 62.145 150.537 63.5447 150.537 65.2553V71.4759C150.537 73.1865 149.138 74.5861 147.427 74.5861Z" stroke="#444E59" stroke-width="2" stroke-linecap="round" stroke-linejoin="round" stroke-dasharray="4.08 4.08"/>
</g>
<g opacity="0.3">
<path opacity="0.3" d="M130.321 74.5861H124.1C122.389 74.5861 120.99 73.1865 120.99 71.4759V65.2553C120.99 63.5447 122.389 62.145 124.1 62.145H130.321C132.031 62.145 133.431 63.5447 133.431 65.2553V71.4759C133.431 73.1865 132.031 74.5861 130.321 74.5861Z" stroke="#444E59" stroke-width="2" stroke-linecap="round" stroke-linejoin="round" stroke-dasharray="4.08 4.08"/>
</g>
</g>
<g opacity="0.3">
<g opacity="0.3">
<path opacity="0.3" d="M113.02 55.9244H106.799C105.089 55.9244 103.689 54.5248 103.689 52.8141V46.5936C103.689 44.8829 105.089 43.4833 106.799 43.4833H113.02C114.73 43.4833 116.13 44.8829 116.13 46.5936V52.8141C116.13 54.5248 114.73 55.9244 113.02 55.9244Z" stroke="#444E59" stroke-width="2" stroke-linecap="round" stroke-linejoin="round" stroke-dasharray="4.08 4.08"/>
</g>
<g opacity="0.3">
<path opacity="0.3" d="M147.427 55.9244H141.207C139.496 55.9244 138.096 54.5248 138.096 52.8141V46.5936C138.096 44.8829 139.496 43.4833 141.207 43.4833H147.427C149.138 43.4833 150.537 44.8829 150.537 46.5936V52.8141C150.537 54.5248 149.138 55.9244 147.427 55.9244Z" stroke="#444E59" stroke-width="2" stroke-linecap="round" stroke-linejoin="round" stroke-dasharray="4.08 4.08"/>
</g>
<g opacity="0.3">
<path opacity="0.3" d="M130.321 55.9244H124.1C122.389 55.9244 120.99 54.5248 120.99 52.8141V46.5936C120.99 44.8829 122.389 43.4833 124.1 43.4833H130.321C132.031 43.4833 133.431 44.8829 133.431 46.5936V52.8141C133.431 54.5248 132.031 55.9244 130.321 55.9244Z" stroke="#444E59" stroke-width="2" stroke-linecap="round" stroke-linejoin="round" stroke-dasharray="4.08 4.08"/>
</g>
</g>
<g opacity="0.3">
<g opacity="0.3">
<path opacity="0.3" d="M113.02 37.2628H106.799C105.089 37.2628 103.689 35.8631 103.689 34.1525V27.9319C103.689 26.2213 105.089 24.8217 106.799 24.8217H113.02C114.73 24.8217 116.13 26.2213 116.13 27.9319V34.1525C116.13 35.8631 114.73 37.2628 113.02 37.2628Z" stroke="#444E59" stroke-width="2" stroke-linecap="round" stroke-linejoin="round" stroke-dasharray="4.08 4.08"/>
</g>
<g opacity="0.3">
<path opacity="0.3" d="M147.427 37.2628H141.207C139.496 37.2628 138.096 35.8631 138.096 34.1525V27.9319C138.096 26.2213 139.496 24.8217 141.207 24.8217H147.427C149.138 24.8217 150.537 26.2213 150.537 27.9319V34.1525C150.537 35.8631 149.138 37.2628 147.427 37.2628Z" stroke="#444E59" stroke-width="2" stroke-linecap="round" stroke-linejoin="round" stroke-dasharray="4.08 4.08"/>
</g>
<g opacity="0.3">
<path opacity="0.3" d="M130.321 37.2628H124.1C122.389 37.2628 120.99 35.8631 120.99 34.1525V27.9319C120.99 26.2213 122.389 24.8217 124.1 24.8217H130.321C132.031 24.8217 133.431 26.2213 133.431 27.9319V34.1525C133.431 35.8631 132.031 37.2628 130.321 37.2628Z" stroke="#444E59" stroke-width="2" stroke-linecap="round" stroke-linejoin="round" stroke-dasharray="4.08 4.08"/>
</g>
</g>
</g>
<path d="M113.02 93.2478H106.799C105.089 93.2478 103.689 91.8481 103.689 90.1375V83.9169C103.689 82.2063 105.089 80.8066 106.799 80.8066H113.02C114.73 80.8066 116.13 82.2063 116.13 83.9169V90.1375C116.13 91.8481 114.73 93.2478 113.02 93.2478Z" fill="#71A850"/>
<path opacity="0.52" d="M113.02 80.8066H106.799C105.555 80.8066 104.466 81.5453 104 82.595L116.13 84.7722V83.9169C116.13 82.2063 114.73 80.8066 113.02 80.8066Z" fill="#5F8C42"/>
<path d="M113.02 93.2478H106.799C105.089 93.2478 103.689 91.8481 103.689 90.1375V83.9169C103.689 82.2063 105.089 80.8066 106.799 80.8066H113.02C114.73 80.8066 116.13 82.2063 116.13 83.9169V90.1375C116.13 91.8481 114.73 93.2478 113.02 93.2478Z" stroke="#444E59" stroke-width="4" stroke-miterlimit="10" stroke-linecap="round" stroke-linejoin="round"/>
<path d="M130.321 93.2478H124.1C122.389 93.2478 120.99 91.8481 120.99 90.1375V83.9169C120.99 82.2063 122.389 80.8066 124.1 80.8066H130.321C132.031 80.8066 133.431 82.2063 133.431 83.9169V90.1375C133.431 91.8481 132.031 93.2478 130.321 93.2478Z" fill="#F09F54"/>
<path opacity="0.52" d="M130.321 80.8066H124.1C122.856 80.8066 121.767 81.5453 121.301 82.595L133.431 84.7722V83.9169C133.431 82.2063 132.031 80.8066 130.321 80.8066Z" fill="#D38444"/>
<path d="M130.321 93.2478H124.1C122.389 93.2478 120.99 91.8481 120.99 90.1375V83.9169C120.99 82.2063 122.389 80.8066 124.1 80.8066H130.321C132.031 80.8066 133.431 82.2063 133.431 83.9169V90.1375C133.431 91.8481 132.031 93.2478 130.321 93.2478Z" stroke="#444E59" stroke-width="4" stroke-miterlimit="10" stroke-linecap="round" stroke-linejoin="round"/>
<path d="M147.427 74.5861H141.207C139.496 74.5861 138.096 73.1865 138.096 71.4759V65.2553C138.096 63.5447 139.496 62.145 141.207 62.145H147.427C149.138 62.145 150.537 63.5447 150.537 65.2553V71.4759C150.537 73.1865 149.138 74.5861 147.427 74.5861Z" fill="#2FA9ED"/>
<path opacity="0.52" d="M147.427 62.145H141.207C139.963 62.145 138.874 62.8837 138.407 63.9334L150.537 66.1106V65.2553C150.537 63.5447 149.138 62.145 147.427 62.145Z" fill="#288FBC"/>
<path d="M147.427 74.5861H141.207C139.496 74.5861 138.096 73.1865 138.096 71.4759V65.2553C138.096 63.5447 139.496 62.145 141.207 62.145H147.427C149.138 62.145 150.537 63.5447 150.537 65.2553V71.4759C150.537 73.1865 149.138 74.5861 147.427 74.5861Z" stroke="#444E59" stroke-width="4" stroke-miterlimit="10" stroke-linecap="round" stroke-linejoin="round"/>
<path d="M130.321 55.9244H124.1C122.389 55.9244 120.99 54.5248 120.99 52.8141V46.5936C120.99 44.8829 122.389 43.4833 124.1 43.4833H130.321C132.031 43.4833 133.431 44.8829 133.431 46.5936V52.8141C133.431 54.5248 132.031 55.9244 130.321 55.9244Z" fill="#E7534E"/>
<path opacity="0.52" d="M130.321 43.4833H124.1C122.856 43.4833 121.767 44.222 121.301 45.2717L133.431 47.4489V46.5936C133.431 44.8829 132.031 43.4833 130.321 43.4833Z" fill="#BF4040"/>
<path d="M130.321 55.9244H124.1C122.389 55.9244 120.99 54.5248 120.99 52.8141V46.5936C120.99 44.8829 122.389 43.4833 124.1 43.4833H130.321C132.031 43.4833 133.431 44.8829 133.431 46.5936V52.8141C133.431 54.5248 132.031 55.9244 130.321 55.9244Z" stroke="#444E59" stroke-width="4" stroke-miterlimit="10" stroke-linecap="round" stroke-linejoin="round"/>
<path d="M143.306 65.6441L146.883 67.7046C147.388 68.0157 147.388 68.7543 146.883 69.0265L143.306 71.0871C142.801 71.3981 142.14 71.0093 142.14 70.4261V66.305C142.14 65.7218 142.801 65.3331 143.306 65.6441Z" fill="white"/>
<path d="M128.843 84.6168H125.577C124.878 84.6168 124.333 85.2 124.333 85.8609V88.2714C124.333 88.9712 124.917 89.5155 125.577 89.5155H125.694L125.422 90.6041C125.383 90.6818 125.5 90.7596 125.577 90.6819L127.249 89.5155H128.921C129.621 89.5155 130.165 88.9323 130.165 88.2714V85.8609C130.126 85.1611 129.543 84.6168 128.843 84.6168Z" fill="white"/>
<path d="M107.499 87.0272L108.937 88.4657C109.132 88.6601 109.443 88.6601 109.637 88.4657L112.864 85.2388" stroke="white" stroke-width="4" stroke-miterlimit="10" stroke-linecap="round" stroke-linejoin="round"/>
<path d="M127.21 52.6197C128.821 52.6197 130.126 51.3142 130.126 49.7038C130.126 48.0935 128.821 46.788 127.21 46.788C125.6 46.788 124.294 48.0935 124.294 49.7038C124.294 51.3142 125.6 52.6197 127.21 52.6197Z" stroke="white" stroke-width="4" stroke-miterlimit="10" stroke-linecap="round" stroke-linejoin="round"/>
<path d="M103.728 34.5414L103.65 28.7096L99.7622 28.7485C99.5289 28.0098 99.2568 27.3488 98.868 26.6879L101.589 23.8887L97.4295 19.8064L94.708 22.6057C94.047 22.2558 93.3472 21.9836 92.6085 21.7892L92.5697 17.9014L86.7379 17.9791L86.7768 21.867C86.0381 22.1002 85.3771 22.3724 84.7162 22.7612L81.917 20.0397L77.8347 24.1997L80.634 26.9212C80.2841 27.5821 80.0119 28.2819 79.8175 29.0206L75.9297 29.0595L76.0074 34.8913L79.8953 34.8524C80.1286 35.5911 80.4007 36.252 80.7895 36.9129L78.068 39.7122L82.228 43.7944L84.9495 40.9952C85.6104 41.3451 86.3102 41.6172 87.0489 41.8116L87.0878 45.6995L92.9196 45.6217L92.8807 41.7339C93.6194 41.5006 94.2803 41.2285 94.9412 40.8397L97.7405 43.5612L101.823 39.4012L99.0235 36.6797C99.3734 36.0187 99.6455 35.3189 99.8399 34.5802L103.728 34.5414ZM89.9259 36.3298C87.3988 36.3686 85.3771 34.347 85.3383 31.8199C85.2994 29.2928 87.3211 27.2711 89.8482 27.2322C92.3753 27.1933 94.397 29.215 94.4358 31.7421C94.4358 34.2692 92.4141 36.2909 89.9259 36.3298Z" fill="white"/>
<path d="M103.728 34.5414L103.65 28.7096L99.7622 28.7485C99.5289 28.0098 99.2568 27.3488 98.868 26.6879L101.589 23.8887L97.4295 19.8064L94.708 22.6057C94.047 22.2558 93.3472 21.9836 92.6085 21.7892L92.5697 17.9014L86.7379 17.9791L86.7768 21.867C86.0381 22.1002 85.3771 22.3724 84.7162 22.7612L81.917 20.0397L77.8347 24.1997L80.634 26.9212C80.2841 27.5821 80.0119 28.2819 79.8175 29.0206L75.9297 29.0595L76.0074 34.8913L79.8953 34.8524C80.1286 35.5911 80.4007 36.252 80.7895 36.9129L78.068 39.7122L82.228 43.7944L84.9495 40.9952C85.6104 41.3451 86.3102 41.6172 87.0489 41.8116L87.0878 45.6995L92.9196 45.6217L92.8807 41.7339C93.6194 41.5006 94.2803 41.2285 94.9412 40.8397L97.7405 43.5612L101.823 39.4012L99.0235 36.6797C99.3734 36.0187 99.6455 35.3189 99.8399 34.5802L103.728 34.5414ZM89.9259 36.3298C87.3988 36.3686 85.3771 34.347 85.3383 31.8199C85.2994 29.2928 87.3211 27.2711 89.8482 27.2322C92.3753 27.1933 94.397 29.215 94.4358 31.7421C94.4358 34.2692 92.4141 36.2909 89.9259 36.3298Z" fill="#F09F54"/>
<path d="M103.728 34.5414L103.65 28.7096L99.7622 28.7485C99.5289 28.0098 99.2568 27.3488 98.868 26.6879L101.589 23.8887L97.4295 19.8064L94.708 22.6057C94.047 22.2558 93.3472 21.9836 92.6085 21.7892L92.5697 17.9014L86.7379 17.9791L86.7768 21.867C86.0381 22.1002 85.3771 22.3724 84.7162 22.7612L81.917 20.0397L77.8347 24.1997L80.634 26.9212C80.2841 27.5821 80.0119 28.2819 79.8175 29.0206L75.9297 29.0595L76.0074 34.8913L79.8953 34.8524C80.1286 35.5911 80.4007 36.252 80.7895 36.9129L78.068 39.7122L82.228 43.7944L84.9495 40.9952C85.6104 41.3451 86.3102 41.6172 87.0489 41.8116L87.0878 45.6995L92.9196 45.6217L92.8807 41.7339C93.6194 41.5006 94.2803 41.2285 94.9412 40.8397L97.7405 43.5612L101.823 39.4012L99.0235 36.6797C99.3734 36.0187 99.6455 35.3189 99.8399 34.5802L103.728 34.5414ZM89.9259 36.3298C87.3988 36.3686 85.3771 34.347 85.3383 31.8199C85.2994 29.2928 87.3211 27.2711 89.8482 27.2322C92.3753 27.1933 94.397 29.215 94.4358 31.7421C94.4358 34.2692 92.4141 36.2909 89.9259 36.3298Z" fill="#F09F54"/>
<g opacity="0.29">
<path opacity="0.29" d="M102.25 28.7485C102.25 28.7485 102.25 28.7874 102.25 28.7485H103.689V28.7096L102.25 28.7485Z" fill="#F09F54"/>
<path opacity="0.29" d="M97.1962 22.6445L98.7125 21.0893L97.4683 19.8452L95.4467 21.9058C96.0687 22.1002 96.6519 22.3334 97.1962 22.6445Z" fill="#F09F54"/>
<path opacity="0.29" d="M92.2586 27.2322C91.831 27.2322 91.4422 27.3099 91.0923 27.3877C92.9973 27.932 94.3969 29.6426 94.3969 31.7032C94.4358 33.8026 92.9973 35.591 91.0923 36.1353C91.4811 36.252 91.9476 36.3297 92.3753 36.2909C94.9024 36.252 96.8852 34.1914 96.8852 31.7032C96.8852 29.215 94.7857 27.2322 92.2586 27.2322Z" fill="#F09F54"/>
<path opacity="0.29" d="M86.4657 21.9835L87.2433 22.7222C87.9042 22.3723 88.5652 22.0613 89.3039 21.828L89.265 17.9402L92.6085 17.9013V17.8624L86.7768 17.9402L86.8156 21.828C86.7379 21.9058 86.5824 21.9447 86.4657 21.9835Z" fill="#F09F54"/>
<path opacity="0.29" d="M89.4983 41.7727C88.7596 41.5784 88.0598 41.3062 87.3988 40.9563L86.699 41.695C86.8157 41.7339 86.9323 41.7728 87.0489 41.8116L87.0878 45.6995L89.5371 45.6606L89.4983 41.7727Z" fill="#F09F54"/>
<path opacity="0.29" d="M78.4568 29.0205L82.3446 28.9817C82.539 28.243 82.8112 27.5432 83.1611 26.8822L80.3618 24.1607L83.2388 21.2448L81.9947 20.0007L77.9125 24.1607L80.7117 26.8822C80.3618 27.5432 80.0897 28.243 79.8953 28.9817L76.0074 29.0205L76.0852 34.8523L78.5345 34.8134L78.4568 29.0205Z" fill="#F09F54"/>
<path opacity="0.29" d="M97.3906 40.8396C96.8463 41.1506 96.302 41.3839 95.7188 41.5783L97.7405 43.5611L98.9457 42.317L97.3906 40.8396Z" fill="#F09F54"/>
<path opacity="0.29" d="M80.5562 39.6343L83.2777 36.8351C82.9278 36.1742 82.6168 35.5132 82.3835 34.7745L79.9342 34.8134C80.1674 35.5132 80.4396 36.213 80.7895 36.8351L78.068 39.6343L82.228 43.7166L83.4332 42.4725L80.5562 39.6343Z" fill="#F09F54"/>
</g>
<path d="M103.728 34.5414L103.65 28.7096L99.7622 28.7485C99.5289 28.0098 99.2568 27.3488 98.868 26.6879L101.589 23.8887L97.4295 19.8064L94.708 22.6057C94.047 22.2558 93.3472 21.9836 92.6085 21.7892L92.5697 17.9014L86.7379 17.9791L86.7768 21.867C86.0381 22.1002 85.3771 22.3724 84.7162 22.7612L81.917 20.0397L77.8347 24.1997L80.634 26.9212C80.2841 27.5821 80.0119 28.2819 79.8175 29.0206L75.9297 29.0595L76.0074 34.8913L79.8953 34.8524C80.1286 35.5911 80.4007 36.252 80.7895 36.9129L78.068 39.7122L82.228 43.7944L84.9495 40.9952C85.6104 41.3451 86.3102 41.6172 87.0489 41.8116L87.0878 45.6995L92.9196 45.6217L92.8807 41.7339C93.6194 41.5006 94.2803 41.2285 94.9412 40.8397L97.7405 43.5612L101.823 39.4012L99.0235 36.6797C99.3734 36.0187 99.6455 35.3189 99.8399 34.5802L103.728 34.5414ZM89.9259 36.3298C87.3988 36.3686 85.3771 34.347 85.3383 31.8199C85.2994 29.2928 87.3211 27.2711 89.8482 27.2322C92.3753 27.1933 94.397 29.215 94.4358 31.7421C94.4358 34.2692 92.4141 36.2909 89.9259 36.3298Z" stroke="#444E59" stroke-width="4" stroke-miterlimit="10" stroke-linecap="round" stroke-linejoin="round"/>
<path d="M79.4287 118.635H31.3361C29.742 118.635 28.459 117.352 28.459 115.758V82.8673C28.459 81.2732 29.742 79.9902 31.3361 79.9902H79.4676C81.0616 79.9902 82.3446 81.2732 82.3446 82.8673V115.758C82.3057 117.352 81.0228 118.635 79.4287 118.635Z" fill="#444E59"/>
<path d="M82.3057 86.2497H28.459V82.8673C28.459 81.2732 29.742 79.9902 31.3361 79.9902H79.4676C81.0616 79.9902 82.3446 81.2732 82.3446 82.8673V86.2497H82.3057Z" fill="#BCBCBC"/>
<path d="M79.4287 118.635H31.3361C29.742 118.635 28.459 117.352 28.459 115.758V82.8673C28.459 81.2732 29.742 79.9902 31.3361 79.9902H79.4676C81.0616 79.9902 82.3446 81.2732 82.3446 82.8673V115.758C82.3057 117.352 81.0228 118.635 79.4287 118.635Z" stroke="#444E59" stroke-width="4" stroke-miterlimit="10" stroke-linecap="round" stroke-linejoin="round"/>
<path d="M79.4287 118.635H31.3361C29.742 118.635 28.459 117.352 28.459 115.758V82.8673C28.459 81.2732 29.742 79.9902 31.3361 79.9902H79.4676C81.0616 79.9902 82.3446 81.2732 82.3446 82.8673V115.758C82.3057 117.352 81.0228 118.635 79.4287 118.635Z" stroke="#444E59" stroke-width="4" stroke-miterlimit="10" stroke-linecap="round" stroke-linejoin="round"/>
<path d="M82.3057 86.2497H28.459V82.8673C28.459 81.2732 29.742 79.9902 31.3361 79.9902H79.4676C81.0616 79.9902 82.3446 81.2732 82.3446 82.8673V86.2497H82.3057Z" stroke="#444E59" stroke-width="4" stroke-miterlimit="10" stroke-linecap="round" stroke-linejoin="round"/>
<path d="M35.8848 113.698H41.9499" stroke="white" stroke-width="4" stroke-miterlimit="10" stroke-linecap="round" stroke-linejoin="round"/>
<path d="M31.6082 113.698H32.0359" stroke="white" stroke-width="4" stroke-miterlimit="10" stroke-linecap="round" stroke-linejoin="round"/>
<path d="M35.8848 110.354H51.2418" stroke="white" stroke-width="4" stroke-miterlimit="10" stroke-linecap="round" stroke-linejoin="round"/>
<path d="M31.6082 110.354H32.0359" stroke="white" stroke-width="4" stroke-miterlimit="10" stroke-linecap="round" stroke-linejoin="round"/>
<path d="M58.551 106.972H62.7499" stroke="#64BDFF" stroke-width="4" stroke-miterlimit="10" stroke-linecap="round" stroke-linejoin="round"/>
<path d="M47.1207 106.972H54.8964" stroke="white" stroke-width="4" stroke-miterlimit="10" stroke-linecap="round" stroke-linejoin="round"/>
<path d="M35.8848 106.972H43.5828" stroke="#FF5F5F" stroke-width="4" stroke-miterlimit="10" stroke-linecap="round" stroke-linejoin="round"/>
<path d="M31.6082 106.972H32.0359" stroke="white" stroke-width="4" stroke-miterlimit="10" stroke-linecap="round" stroke-linejoin="round"/>
<path d="M48.8314 103.628H67.5708" stroke="white" stroke-width="4" stroke-miterlimit="10" stroke-linecap="round" stroke-linejoin="round"/>
<path d="M35.8848 103.628H45.6822" stroke="#64BDFF" stroke-width="4" stroke-miterlimit="10" stroke-linecap="round" stroke-linejoin="round"/>
<path d="M31.6082 103.628H32.0359" stroke="white" stroke-width="4" stroke-miterlimit="10" stroke-linecap="round" stroke-linejoin="round"/>
<path d="M48.8314 100.285H55.8295" stroke="#FF5F5F" stroke-width="4" stroke-miterlimit="10" stroke-linecap="round" stroke-linejoin="round"/>
<path d="M35.8848 100.285H45.6822" stroke="#FFBE78" stroke-width="4" stroke-miterlimit="10" stroke-linecap="round" stroke-linejoin="round"/>
<path d="M31.6082 100.285H32.0359" stroke="white" stroke-width="4" stroke-miterlimit="10" stroke-linecap="round" stroke-linejoin="round"/>
<path d="M50.1921 96.9413H52.0972" stroke="#64BDFF" stroke-width="4" stroke-miterlimit="10" stroke-linecap="round" stroke-linejoin="round"/>
<path d="M42.8052 96.9413H47.1207" stroke="#FF5F5F" stroke-width="4" stroke-miterlimit="10" stroke-linecap="round" stroke-linejoin="round"/>
<path d="M35.8848 96.9413H39.4617" stroke="#C383F2" stroke-width="4" stroke-miterlimit="10" stroke-linecap="round" stroke-linejoin="round"/>
<path d="M31.6082 96.9413H32.0359" stroke="white" stroke-width="4" stroke-miterlimit="10" stroke-linecap="round" stroke-linejoin="round"/>
<path d="M64.1884 93.5588H67.5708" stroke="#64BDFF" stroke-width="4" stroke-miterlimit="10" stroke-linecap="round" stroke-linejoin="round"/>
<path d="M46.6542 93.5588H59.9117" stroke="#FF5F5F" stroke-width="4" stroke-miterlimit="10" stroke-linecap="round" stroke-linejoin="round"/>
<path d="M35.8848 93.5588H43.7772" stroke="#FFBE78" stroke-width="4" stroke-miterlimit="10" stroke-linecap="round" stroke-linejoin="round"/>
<path d="M31.6082 93.5588H32.0359" stroke="white" stroke-width="4" stroke-miterlimit="10" stroke-linecap="round" stroke-linejoin="round"/>
<path d="M55.8295 90.2152H62.7499" stroke="#FFBE78" stroke-width="4" stroke-miterlimit="10" stroke-linecap="round" stroke-linejoin="round"/>
<path d="M47.1207 90.2152H52.486" stroke="#6DBF7B" stroke-width="4" stroke-miterlimit="10" stroke-linecap="round" stroke-linejoin="round"/>
<path d="M41.2889 90.2152H44.3215" stroke="#FFBE78" stroke-width="4" stroke-miterlimit="10" stroke-linecap="round" stroke-linejoin="round"/>
<path d="M35.8848 90.2152H38.3731" stroke="#6DBF7B" stroke-width="4" stroke-miterlimit="10" stroke-linecap="round" stroke-linejoin="round"/>
<path d="M31.6082 90.2152H32.0359" stroke="white" stroke-width="4" stroke-miterlimit="10" stroke-linecap="round" stroke-linejoin="round"/>
<path d="M33.7854 84.1113C34.3222 84.1113 34.7574 83.6761 34.7574 83.1393C34.7574 82.6025 34.3222 82.1674 33.7854 82.1674C33.2486 82.1674 32.8134 82.6025 32.8134 83.1393C32.8134 83.6761 33.2486 84.1113 33.7854 84.1113Z" fill="#E7534E"/>
<path d="M37.2845 84.1113C37.8213 84.1113 38.2564 83.6761 38.2564 83.1393C38.2564 82.6025 37.8213 82.1674 37.2845 82.1674C36.7477 82.1674 36.3125 82.6025 36.3125 83.1393C36.3125 83.6761 36.7477 84.1113 37.2845 84.1113Z" fill="#444E59"/>
<path d="M40.8224 84.1113C41.3592 84.1113 41.7944 83.6761 41.7944 83.1393C41.7944 82.6025 41.3592 82.1674 40.8224 82.1674C40.2856 82.1674 39.8504 82.6025 39.8504 83.1393C39.8504 83.6761 40.2856 84.1113 40.8224 84.1113Z" fill="#444E59"/>
<path d="M98.5958 89.6709H63.7607C62.0501 89.6709 60.6504 88.2713 60.6504 86.5607V55.108C60.6504 53.3973 62.0501 51.9977 63.7607 51.9977H98.5958C100.306 51.9977 101.706 53.3973 101.706 55.108V86.5607C101.706 88.2713 100.306 89.6709 98.5958 89.6709Z" fill="white"/>
<path d="M98.5958 89.6709H63.7607C62.0501 89.6709 60.6504 88.2713 60.6504 86.5607V55.108C60.6504 53.3973 62.0501 51.9977 63.7607 51.9977H98.5958C100.306 51.9977 101.706 53.3973 101.706 55.108V86.5607C101.706 88.2713 100.306 89.6709 98.5958 89.6709Z" fill="white"/>
<path d="M98.5958 89.6709H63.7607C62.0501 89.6709 60.6504 88.2713 60.6504 86.5607V55.108C60.6504 53.3973 62.0501 51.9977 63.7607 51.9977H98.5958C100.306 51.9977 101.706 53.3973 101.706 55.108V86.5607C101.706 88.2713 100.306 89.6709 98.5958 89.6709Z" stroke="#444E59" stroke-width="4" stroke-miterlimit="10" stroke-linecap="round" stroke-linejoin="round"/>
<path d="M97.9349 55.1858H64.1884V77.6187H97.9349V55.1858Z" fill="#9483C4"/>
<path d="M97.9349 55.1858H64.1884V77.6187H97.9349V55.1858Z" stroke="#444E59" stroke-width="4" stroke-miterlimit="10" stroke-linecap="round" stroke-linejoin="round"/>
<path d="M64.1884 81.1954H85.4938" stroke="#444E59" stroke-width="4" stroke-miterlimit="10" stroke-linecap="round" stroke-linejoin="round"/>
<path d="M64.1884 84.7722H76.785" stroke="#444E59" stroke-width="4" stroke-miterlimit="10" stroke-linecap="round" stroke-linejoin="round"/>
<path d="M67.5708 73.6141L74.8411 66.4216L81.6059 73.1865" stroke="#444E59" stroke-width="4" stroke-miterlimit="10" stroke-linecap="round" stroke-linejoin="round"/>
<path d="M94.2803 73.6142L85.4938 62.145L78.4568 69.9985" stroke="#444E59" stroke-width="4" stroke-miterlimit="10" stroke-linecap="round" stroke-linejoin="round"/>
<path d="M94.2026 84.7334C95.2547 84.7334 96.1076 83.8805 96.1076 82.8284C96.1076 81.7762 95.2547 80.9233 94.2026 80.9233C93.1504 80.9233 92.2975 81.7762 92.2975 82.8284C92.2975 83.8805 93.1504 84.7334 94.2026 84.7334Z" stroke="#444E59" stroke-width="4" stroke-miterlimit="10" stroke-linecap="round" stroke-linejoin="round"/>
<path d="M76.9794 64.5554C78.3107 64.5554 79.3899 63.4762 79.3899 62.145C79.3899 60.8137 78.3107 59.7345 76.9794 59.7345C75.6481 59.7345 74.5689 60.8137 74.5689 62.145C74.5689 63.4762 75.6481 64.5554 76.9794 64.5554Z" fill="#F09F54"/>
<path d="M76.9794 64.5554C78.3107 64.5554 79.3899 63.4762 79.3899 62.145C79.3899 60.8137 78.3107 59.7345 76.9794 59.7345C75.6481 59.7345 74.5689 60.8137 74.5689 62.145C74.5689 63.4762 75.6481 64.5554 76.9794 64.5554Z" stroke="#444E59" stroke-width="4" stroke-miterlimit="10" stroke-linecap="round" stroke-linejoin="round"/>
<path d="M59.9895 40.9174H70.4089" stroke="#444E59" stroke-width="4" stroke-miterlimit="10" stroke-linecap="round" stroke-linejoin="round"/>
<path d="M54.4299 40.9174H57.1902" stroke="#444E59" stroke-width="4" stroke-miterlimit="10" stroke-linecap="round" stroke-linejoin="round"/>
<path d="M65.1992 36.0964H70.4089" stroke="#444E59" stroke-width="4" stroke-miterlimit="10" stroke-linecap="round" stroke-linejoin="round"/>
<path d="M61.0003 36.0964H62.5555" stroke="#444E59" stroke-width="4" stroke-miterlimit="10" stroke-linecap="round" stroke-linejoin="round"/>
<path d="M48.7147 71.3981H56.8403" stroke="#444E59" stroke-width="4" stroke-miterlimit="10" stroke-linecap="round" stroke-linejoin="round"/>
<path d="M44.3992 71.3981H46.5375" stroke="#444E59" stroke-width="4" stroke-miterlimit="10" stroke-linecap="round" stroke-linejoin="round"/>
<path d="M53.5357 66.5771H56.8403" stroke="#444E59" stroke-width="4" stroke-miterlimit="10" stroke-linecap="round" stroke-linejoin="round"/>
<path d="M49.4923 66.5771H50.7364" stroke="#444E59" stroke-width="4" stroke-miterlimit="10" stroke-linecap="round" stroke-linejoin="round"/>
<path d="M178.297 14.9855H185.995" stroke="#444E59" stroke-width="4" stroke-miterlimit="10" stroke-linecap="round" stroke-linejoin="round"/>
<path d="M173.553 14.9855H175.731" stroke="#444E59" stroke-width="4" stroke-miterlimit="10" stroke-linecap="round" stroke-linejoin="round"/>
<path d="M182.69 10.1644H185.995" stroke="#444E59" stroke-width="4" stroke-miterlimit="10" stroke-linecap="round" stroke-linejoin="round"/>
<path d="M178.685 10.1644H179.891" stroke="#444E59" stroke-width="4" stroke-miterlimit="10" stroke-linecap="round" stroke-linejoin="round"/>
<path d="M184.284 42.1614H153.881C152.015 42.1614 150.537 40.6452 150.537 38.8179V24.0829C150.537 22.2168 152.054 20.7394 153.881 20.7394H184.284C186.15 20.7394 187.628 22.2556 187.628 24.0829V38.779C187.628 40.6452 186.15 42.1614 184.284 42.1614Z" fill="#2FA9ED"/>
<path d="M184.284 42.1614H153.881C152.015 42.1614 150.537 40.6452 150.537 38.8179V24.0829C150.537 22.2168 152.054 20.7394 153.881 20.7394H184.284C186.15 20.7394 187.628 22.2556 187.628 24.0829V38.779C187.628 40.6452 186.15 42.1614 184.284 42.1614Z" stroke="#444E59" stroke-width="3" stroke-miterlimit="10" stroke-linecap="round" stroke-linejoin="round"/>
<path opacity="0.56" d="M169.082 26.4934H182.223" stroke="white" stroke-width="3" stroke-miterlimit="10" stroke-linecap="round" stroke-linejoin="round"/>
<path opacity="0.56" d="M169.082 30.7312H177.791" stroke="white" stroke-width="3" stroke-miterlimit="10" stroke-linecap="round" stroke-linejoin="round"/>
<g opacity="0.56">
<path opacity="0.56" d="M175.692 37.0684H170.404C169.705 37.0684 169.121 36.4853 169.121 35.7854C169.121 35.0856 169.705 34.5024 170.404 34.5024H175.692C176.392 34.5024 176.975 35.0856 176.975 35.7854C176.975 36.4853 176.431 37.0684 175.692 37.0684Z" fill="white"/>
<path opacity="0.56" d="M175.692 37.0684H170.404C169.705 37.0684 169.121 36.4853 169.121 35.7854C169.121 35.0856 169.705 34.5024 170.404 34.5024H175.692C176.392 34.5024 176.975 35.0856 176.975 35.7854C176.975 36.4853 176.431 37.0684 175.692 37.0684Z" stroke="white" stroke-width="3" stroke-miterlimit="10" stroke-linecap="round" stroke-linejoin="round"/>
</g>
<path d="M163.601 37.2627H156.641C155.631 37.2627 154.853 36.4463 154.853 35.4743V27.3487C154.853 26.3379 155.669 25.5603 156.641 25.5603H163.601C164.611 25.5603 165.389 26.3768 165.389 27.3487V35.4743C165.389 36.4463 164.611 37.2627 163.601 37.2627Z" stroke="white" stroke-width="3" stroke-miterlimit="10" stroke-linecap="round" stroke-linejoin="round"/>
<path d="M160.14 31.9364C161.171 31.9364 162.007 31.1009 162.007 30.0703C162.007 29.0396 161.171 28.2041 160.14 28.2041C159.11 28.2041 158.274 29.0396 158.274 30.0703C158.274 31.1009 159.11 31.9364 160.14 31.9364Z" stroke="white" stroke-width="3" stroke-miterlimit="10" stroke-linecap="round" stroke-linejoin="round"/>
<path d="M156.603 37.0683C156.603 35.1244 158.197 33.5304 160.14 33.5304C162.084 33.5304 163.678 35.1244 163.678 37.0683" stroke="white" stroke-width="3" stroke-miterlimit="10" stroke-linecap="round" stroke-linejoin="round"/>
</svg>
